<svg width="24" height="24" viewBox="0 0 24 24" fill="none" xmlns="http://www.w3.org/2000/svg">
<path fill-rule="evenodd" clip-rule="evenodd" d="M13.5138 3.80601C14.5869 2.73125 16.3274 2.7306 17.4014 3.80454L19.8932 6.29639C20.958 7.36117 20.9691 9.08493 19.918 10.1633L10.6849 19.6366C9.97936 20.3604 9.0117 20.7686 8.00126 20.7686L5.07067 20.7684C3.88874 20.7684 2.94484 19.7831 2.99455 18.6014L3.05282 17.2162L3.11108 15.831L3.12021 15.6139C3.15971 14.6749 3.54999 13.7849 4.21382 13.12L6.27277 11.058C6.56544 10.7648 7.04014 10.7647 7.33303 11.0576C7.62593 11.3505 7.6261 11.8255 7.33343 12.1186L5.27448 14.1807C4.87618 14.5796 4.64201 15.1136 4.61832 15.677L4.60918 15.8941L4.55092 17.2793L4.49266 18.6645C4.47882 18.9935 4.74164 19.2679 5.07073 19.2679L8.00133 19.268C8.60759 19.268 9.18818 19.0231 9.6115 18.5888L16.1442 11.8862L14.3557 10.0977C14.0628 9.80476 14.0628 9.32989 14.3557 9.03699C14.6485 8.7441 15.1234 8.7441 15.4163 9.03699L17.1912 10.8119L18.8446 9.11554C19.3224 8.62537 19.3174 7.84184 18.8334 7.35785L16.3415 4.866C15.8534 4.37784 15.0622 4.37814 14.5744 4.86667L10.2181 9.22954C9.92547 9.52266 9.45078 9.52284 9.15788 9.22994C8.86499 8.93705 8.86481 8.462 9.15748 8.16888L13.5138 3.80601ZM20.5148 20.6953C20.9289 20.6953 21.2646 20.3594 21.2646 19.945C21.2646 19.5306 20.9289 19.1947 20.5148 19.1947H14.3931C13.9791 19.1947 13.6434 19.5306 13.6434 19.945C13.6434 20.3594 13.9791 20.6953 14.3931 20.6953H20.5148Z" fill="#2B3F6C"/>
</svg>
